<svg width="68" height="68" viewBox="0 0 68 68" fill="none" xmlns="http://www.w3.org/2000/svg">
<path d="M14 62.9091L5.99998 54.7272L54.7273 5.09087L62.7273 13.2727L14 62.9091ZM54.7273 62.9091L5.99998 13.2727L14 5.09087L62.7273 54.7272L54.7273 62.9091ZM-1.62125e-05 33.6363C-1.62125e-05 31.6363 0.590893 29.9545 1.77271 28.5909C2.95453 27.2272 4.72726 26.5454 7.09089 26.5454C9.54544 26.5454 11.3636 27.2272 12.5454 28.5909C13.7576 29.9545 14.3636 31.6363 14.3636 33.6363C14.3636 35.5454 13.7576 37.1515 12.5454 38.4545C11.3636 39.7272 9.54544 40.3636 7.09089 40.3636C4.72726 40.3636 2.95453 39.7272 1.77271 38.4545C0.590893 37.1515 -1.62125e-05 35.5454 -1.62125e-05 33.6363ZM26.7273 61.0909C26.7273 59.1818 27.3182 57.5606 28.5 56.2272C29.6818 54.8636 31.4545 54.1818 33.8182 54.1818C36.1818 54.1818 37.9848 54.8636 39.2273 56.2272C40.4697 57.5606 41.0909 59.1818 41.0909 61.0909C41.0909 63 40.4697 64.6363 39.2273 66C37.9848 67.3333 36.1818 68 33.8182 68C31.4545 68 29.6818 67.3333 28.5 66C27.3182 64.6363 26.7273 63 26.7273 61.0909ZM26.7273 6.90906C26.7273 4.99996 27.3182 3.37875 28.5 2.04542C29.6818 0.68178 31.4545 -3.8147e-05 33.8182 -3.8147e-05C36.1818 -3.8147e-05 37.9848 0.68178 39.2273 2.04542C40.4697 3.37875 41.0909 4.99996 41.0909 6.90906C41.0909 8.81815 40.4697 10.4545 39.2273 11.8181C37.9848 13.1515 36.1818 13.8181 33.8182 13.8181C31.4545 13.8181 29.6818 13.1515 28.5 11.8181C27.3182 10.4545 26.7273 8.81815 26.7273 6.90906ZM53.2727 33.6363C53.2727 31.6363 53.8939 29.9545 55.1363 28.5909C56.3788 27.2272 58.1818 26.5454 60.5454 26.5454C62.9091 26.5454 64.7121 27.2272 65.9545 28.5909C67.197 29.9545 67.8182 31.6363 67.8182 33.6363C67.8182 35.5454 67.197 37.1515 65.9545 38.4545C64.7121 39.7272 62.9091 40.3636 60.5454 40.3636C58.1818 40.3636 56.3788 39.7272 55.1363 38.4545C53.8939 37.1515 53.2727 35.5454 53.2727 33.6363Z" fill="#E26683"/>
</svg>
